<svg width="228" height="304" viewBox="0 0 228 304" fill="none" xmlns="http://www.w3.org/2000/svg">
<g clip-path="url(#clip0_15_2799)">
<path d="M89.2139 81.6577C92.8079 82.4425 92.9605 82.5945 92.4796 85.8835C87.8551 119.747 138.414 130.307 154.612 98.8573C157.979 92.3661 160.807 90.2601 164.737 91.5618C166.29 92.0764 166.749 92.8366 166.355 94.0247C158.999 116.233 189.982 143.332 209.78 131.938C216.775 127.967 226.136 119.303 228.168 115.006L229.987 111.045L235.47 112.252C245.064 114.213 245.124 113.726 238.929 90.1732C228.135 49.2753 215.707 29.8442 203.629 34.7687C199.979 36.2979 200.283 36.2974 192.923 56.3747C192.469 57.7456 192.99 59.2365 194.148 60.0258C199.269 63.2433 207.21 60.7014 203.154 57.0252C201.446 55.4453 201.446 55.1408 204.022 49.1991C207.811 40.515 208.542 40.4528 212.425 48.9397C221.352 68.5295 227.645 79.8432 229.062 88.4261C229.462 90.5869 229.28 90.8309 228.699 89.5228C227.935 88.1542 222.023 85.4861 221.72 86.4C221.66 86.5828 222.182 89.2913 222.918 92.2736C229.854 121.244 192.631 143.296 179.887 117.777C170.291 98.6754 192.167 74.8869 213.005 81.789C218.762 83.6962 220.101 83.0238 216.989 79.8633C208.356 71.0201 187.354 73.4955 174.649 84.906L170.455 88.6891L163.997 86.7529C160.311 85.6334 157.66 84.4511 157.842 83.9027C158.447 82.0748 155.058 76.9969 152.773 76.2401C149.849 75.2714 149.546 76.1853 151.017 81.2364C157.3 103.297 124.698 122.113 108.896 105.52C89.037 84.6418 120.059 51.611 143.626 68.6461C150.424 73.5349 151.612 73.9283 151.485 71.2494C150.598 52.8013 114.339 53.5703 99.8219 72.2911C95.9041 77.3829 95.6605 77.505 92.5531 76.4758C89.9027 75.5979 89.5368 75.1724 90.5392 73.9831C91.2075 73.1903 96.2768 65.2345 102.014 56.1815C119.983 27.6508 135.966 10.9366 135.103 21.8071C134.538 28.7192 130.543 41.3919 129.081 40.9076C125.242 39.6361 123.244 45.668 126.872 47.8837C134.583 52.7708 145.379 29.9774 139.941 20.367C133.862 9.63133 120.901 13.8574 109.029 30.716C106.144 34.8316 100.952 41.9351 97.4896 46.5693C79.6634 70.3807 77.731 78.9698 89.2139 81.6577Z" fill="#F3F7FF"/>
<path d="M243.901 223.97C242.214 201.2 236.895 206.234 237.832 218.714C238.333 225.777 238.184 227.451 237.148 226.601C220.101 212.233 176.198 211.585 144.836 225.436L129.869 232.04C132.378 222.628 133.86 217.237 134.372 214.161C134.854 211.481 130.983 209.387 129.588 212.069C127.919 215.269 126.013 221.331 122.834 230.927L121.061 226.79C112.284 206.135 72.6404 188.034 30.3777 185.496C23.3137 185.083 22.7384 186.819 36.5822 166.151C55.344 137.984 62.8064 123.722 66.4494 118.235C68.0887 115.735 98.156 125.086 108.58 131.277C118.333 137.043 138.157 155.273 140.267 160.231C140.94 161.874 140.098 167.477 137.111 181.397C132.644 202.229 133.373 200.949 134.867 202.256C137.581 204.473 141.869 186.32 148.037 163.718L162.856 159.092C197.908 148.188 221.948 158.28 226.607 158.911L229.52 169.713C236.02 193.57 235.517 201.517 238.706 197.705C239.891 196.272 234.52 157.678 232.718 154.545C229.297 148.646 189.386 133.803 152.795 151.805C143.213 156.542 144.127 156.54 141.257 152.344C122.756 125.222 69.5812 99.9008 61.3578 114.317C56.3205 123.095 30.6574 156.481 17.6709 179.765C14.3637 185.769 13.7276 187.384 14.067 189.728C14.468 192.498 15.0474 192.892 19.128 193.433C20.8639 193.703 20.926 194.434 19.3862 201.226C17.8166 208.414 18.2518 213.223 20.4429 212.732C21.9646 212.425 21.0545 213.949 18.9565 215.384C13.97 218.803 14.7506 229.305 20.0811 230.665C22.4265 231.239 22.9149 231.908 22.9806 234.465C23.1104 238.666 24.7258 239.607 29.4422 238.228C34.3717 236.818 43.0751 234.732 56.0773 235.894C69.0796 237.057 106.069 252.453 109.241 255.431C111.162 257.284 112.29 257.861 112.989 257.281C113.537 256.854 116.886 257.152 120.541 258.058C132.846 261.019 152.674 265.152 161.75 266.536C175.271 268.58 199.065 277.273 206.078 282.74C213.914 288.784 217.715 286.493 213.924 278.036C212.579 275.055 212.578 274.751 214.072 275.753C225.838 283.403 229.698 279.711 226.592 263.673C225.209 256.521 225.118 256.795 229.962 258.399C235.719 260.306 236.172 258.022 232.8 245.546C229.734 234.287 229.764 234.196 236.258 239.085C244.063 244.916 245.276 242.478 243.901 223.97ZM56.2014 221.128C44.8099 218.471 32.7879 220.472 31.6615 220.505C29.9565 220.447 29.2841 219.109 30.7109 216.945C31.5609 215.603 32.593 214.018 32.9265 213.317C35.2318 208.807 67.6665 214.378 81.472 221.689C95.0336 228.818 96.8027 230.52 107.688 238.994C87.1516 230.569 68.3544 223.937 56.2014 221.128ZM118.643 236.233C76.9096 207.906 58.9655 201.456 30.7179 204.371C26.9131 204.835 23.7164 204.993 23.6856 204.78C23.5936 204.445 24.7405 199.146 25.8263 193.724C49.8208 195.688 69.1857 196.626 89.9987 206.664C96.2152 209.636 103.899 215.832 109.239 222.063C118.362 232.793 122.27 238.753 118.643 236.233ZM149.326 233.313C181.877 219.855 201.908 219.087 220.684 230.681C222.635 231.834 227.501 245.008 226.284 245.619C226.041 245.741 224.212 244.832 222.2 243.557C206.351 234.149 196.18 232.402 169.94 234.766C163.031 235.418 155.846 235.98 153.989 236.074C146.348 236.485 125.932 243.008 149.326 233.313ZM214.837 261.807C204.475 256.042 191.65 252.2 179.348 251.066C170.091 250.232 142.167 246.966 141.586 245.962C141.251 245.445 156.408 243.164 164.047 241.84C179.539 239.162 196.136 242.023 214.145 250.422C218.015 252.211 218.412 252.85 220.22 258.722C222.609 266.512 222.883 266.298 214.837 261.807Z" fill="#F3F7FF"/>
</g>
<defs>
<clipPath id="clip0_15_2799">
<rect width="228" height="304" fill="white"/>
</clipPath>
</defs>
</svg>
