<svg width="62" height="56" viewBox="0 0 62 56" fill="none" xmlns="http://www.w3.org/2000/svg">
<path fill-rule="evenodd" clip-rule="evenodd" d="M55.6562 2.00656C52.0932 4.43746 50.3281 5.86939 45.9326 9.89867C42.1696 13.3286 42.2364 13.2953 41.1708 12.1964C38.9731 9.8321 30.9143 7.70087 28.6166 8.93298C27.5176 9.49907 27.651 10.6313 28.8165 10.6313C31.9798 10.6646 34.9103 12.1298 37.4079 14.2277C39.6389 16.1258 39.6389 16.0259 36.4755 19.156C33.0788 22.486 28.2504 27.9805 25.5529 31.5435L23.4883 34.2742L21.7568 31.7102C17.6609 25.5828 13.232 22.5527 10.5015 23.9844C9.50243 24.5173 9.66894 24.8504 12.6659 28.014C15.2966 30.7778 18.0272 34.7072 19.9586 38.5365C21.5237 41.6337 25.3866 41.6337 28.0173 37.1715C29.9155 33.9412 34.8104 27.7809 38.8397 23.585L42.4362 19.822L43.3019 21.7535C51.0276 39.0362 32.1797 59.0494 16.3289 50.3915C0.145141 41.5338 3.80813 13.1288 21.4572 10.598C24.9204 10.0985 24.9868 8.93295 21.5569 8.50007C12.6991 7.30126 1.37726 17.7906 0.178445 28.2471C-2.08597 48.1938 17.5944 61.1807 36.8418 52.4893C48.5301 47.2279 53.9911 28.3135 46.765 18.3235C46.2324 17.5911 45.7994 16.8918 45.7994 16.7251C45.7994 16.0259 51.7601 10.6979 58.0871 5.83606C65.2132 0.341569 61.517 -1.98945 55.6562 2.00656Z" fill="white"/>
</svg>
